#!OML:ASF F:\VICON\USERDATA\INSTALL\rory3\rory3.ASF
:FULLY-SPECIFIED
:DEGREES
848
root -0.734867 18.4176 -3.00732 7.36284 28.8802 1.02771
lowerback 9.76847 -3.72631 -3.89519
upperback 0.625951 -5.18259 3.86099
thorax -4.10231 -2.46864 6.91009
lowerneck -19.5308 -8.54146 -13.026
upperneck 17.9462 -11.0067 13.1932
head 10.479 -4.56606 5.14536
rclavicle 7.07673e-014 -5.32743e-014
rhumerus -8.31835 5.06832 -74.2756
rradius 139.786
rwrist 2.38423
rhand -19.8817 25.2481
rfingers 7.12502
rthumb 6.45404 -4.63354
lclavicle 7.07673e-014 -5.32743e-014
lhumerus 7.84968 -28.3307 87.6041
lradius 123.484
lwrist -0.749062
lhand -6.4159 7.61798
lfingers 7.12502
lthumb 19.4325 36.6669
rfemur -32.1111 -10.7357 9.71311
rtibia 50.8943
rfoot -10.3703 -16.3106
rtoes 11.9066
lfemur -7.27739 5.03922 -13.6718
ltibia 30.763
lfoot 2.51106 -8.56991
ltoes -33.2166
849
root -0.671988 18.5011 -3.08389 7.15316 29.1613 1.05536
lowerback 9.82019 -3.89607 -3.93846
upperback 0.711371 -5.41668 3.81195
thorax -4.00838 -2.5901 6.90681
lowerneck -19.4279 -8.62651 -13.0138
upperneck 18.0193 -11.1944 13.3638
head 10.5263 -4.63581 5.17674
rclavicle -2.10712e-014 -7.15625e-015
rhumerus -8.31804 5.03726 -74.2326
rradius 139.495
rwrist 2.16239
rhand -19.557 24.5802
rfingers 7.12502
rthumb 6.76747 -5.29169
lclavicle -2.10712e-014 -7.15625e-015
lhumerus 7.6123 -28.1613 87.3838
lradius 123.455
lwrist -0.680619
lhand -6.38585 7.77778
lfingers 7.12502
lthumb 19.4614 36.8238
rfemur -31.4654 -11.4059 10.6311
rtibia 52.9212
rfoot -10.3355 -15.9947
rtoes 11.1706
lfemur -7.67587 4.68109 -13.4056
ltibia 30.9261
lfoot 4.6968 -10.3851
ltoes -32.643
850
root -0.606135 18.5678 -3.17007 7.04056 29.2206 1.19337
lowerback 9.88933 -3.95907 -4.05152
upperback 0.68056 -5.51903 3.72948
thorax -4.06211 -2.63684 6.90244
lowerneck -18.8589 -8.68726 -12.9935
upperneck 17.92 -11.3546 13.4081
head 10.4112 -4.72742 5.17095
rclavicle 1.82882e-014 -3.97569e-014
rhumerus -8.63857 5.03717 -74.1536
rradius 139.157
rwrist 1.4952
rhand -19.8868 25.288
rfingers 7.12502
rthumb 6.4491 -4.59381
lclavicle 1.82882e-014 -3.97569e-014
lhumerus 7.19413 -28.0069 87.3465
lradius 123.412
lwrist -0.547904
lhand -6.36452 7.94422
lfingers 7.12502
lthumb 19.4819 36.9882
rfemur -30.9262 -11.9998 11.2955
rtibia 54.7957
rfoot -9.48517 -15.0699
rtoes 10.6587
lfemur -8.06719 4.2091 -13.3135
ltibia 31.2042
lfoot 5.81026 -11.645
ltoes -31.0106
851
root -0.541364 18.6164 -3.2564 6.8719 29.2803 1.34283
lowerback 9.98397 -4.00304 -4.2155
upperback 0.587134 -5.60318 3.65012
thorax -4.19331 -2.66906 6.93491
lowerneck -17.8323 -8.6886 -12.9984
upperneck 17.6476 -11.4551 13.4455
head 10.1419 -4.81588 5.18536
rclavicle 1.66979e-014 -8.74653e-015
rhumerus -9.24875 4.93208 -74.0552
rradius 138.932
rwrist 0.889186
rhand -20.0628 26.0135
rfingers 7.12502
rthumb 6.27918 -3.87339
lclavicle 1.66979e-014 -8.74653e-015
lhumerus 6.52587 -27.8315 87.55
lradius 123.337
lwrist -0.596783
lhand -6.38334 7.90168
lfingers 7.12502
lthumb 19.4638 36.9475
rfemur -30.2633 -12.5824 11.8176
rtibia 56.473
rfoot -8.28586 -13.8136
rtoes 10.146
lfemur -8.33776 3.75101 -13.2091
ltibia 31.5976
lfoot 5.57795 -12.2674
ltoes -31.4964
852
root -0.477562 18.6568 -3.33864 6.57606 29.449 1.25877
lowerback 10.0993 -4.10312 -4.20277
upperback 0.478068 -5.73924 3.64049
thorax -4.3548 -2.72789 6.95093
lowerneck -16.8632 -8.68309 -13.0709
upperneck 17.4348 -11.5384 13.5315
head 9.91052 -4.89351 5.23357
rclavicle -3.57812e-015 0
rhumerus -9.81688 4.77701 -73.9243
rradius 138.739
rwrist 0.737115
rhand -20.019 26.0386
rfingers 7.12502
rthumb 6.32148 -3.84703
lclavicle -3.57812e-015 0
lhumerus 5.77661 -27.6196 87.7412
lradius 123.347
lwrist -0.803321
lhand -6.49045 8.13205
lfingers 7.12502
lthumb 19.3608 37.1882
rfemur -29.4582 -13.0074 12.4766
rtibia 57.8958
rfoot -6.90101 -12.5922
rtoes 9.01328
lfemur -8.63391 3.42648 -12.8082
ltibia 32.1615
lfoot 4.50223 -11.7342
ltoes -34.128
853
root -0.409978 18.6896 -3.41813 6.42965 29.545 1.14632
lowerback 9.94163 -4.18261 -4.12912
upperback 0.455013 -5.83292 3.64646
thorax -4.28424 -2.77862 6.91149
lowerneck -16.3347 -8.72761 -13.2591
upperneck 17.3187 -11.646 13.7204
head 9.8141 -4.96074 5.3261
rclavicle 4.90998e-014 -3.49861e-014
rhumerus -10.032 4.57102 -73.7316
rradius 138.483
rwrist 0.770242
rhand -20.2106 25.8629
rfingers 7.12502
rthumb 6.13648 -4.02819
lclavicle 4.90998e-014 -3.49861e-014
lhumerus 5.34074 -27.3746 87.7504
lradius 123.37
lwrist -0.91199
lhand -6.75397 8.22789
lfingers 7.12502
lthumb 19.1074 37.3093
rfemur -28.7669 -13.2028 13.0897
rtibia 59.0208
rfoot -5.02735 -11.5559
rtoes 8.03251
lfemur -9.08137 3.14431 -12.3966
ltibia 32.8141
lfoot 3.2311 -9.58951
ltoes -35.724
854
root -0.337858 18.7097 -3.50158 6.50527 29.441 1.11536
lowerback 9.58061 -4.19954 -4.06107
upperback 0.462536 -5.84146 3.61054
thorax -4.08449 -2.79334 6.79876
lowerneck -16.203 -8.77482 -13.3088
upperneck 17.3214 -11.7345 13.7985
head 9.81319 -5.00279 5.35115
rclavicle 3.85642e-014 6.36111e-015
rhumerus -10.0561 4.30665 -73.5329
rradius 138.258
rwrist 0.706005
rhand -20.4266 25.7435
rfingers 7.12502
rthumb 5.92792 -4.15353
lclavicle 3.85642e-014 6.36111e-015
lhumerus 5.13109 -27.0785 87.6726
lradius 123.321
lwrist -1.05848
lhand -6.94257 8.09003
lfingers 7.12502
lthumb 18.9261 37.1893
rfemur -28.2852 -13.2583 13.5661
rtibia 59.8485
rfoot -2.43329 -10.7824
rtoes 6.8371
lfemur -9.62001 2.89536 -12.1082
ltibia 33.4452
lfoot 1.98745 -6.85892
ltoes -34.6664
855
root -0.261345 18.7197 -3.58823 6.59518 29.1641 1.02605
lowerback 9.23286 -4.16428 -3.8954
upperback 0.451874 -5.77045 3.58195
thorax -3.93131 -2.76742 6.63393
lowerneck -16.1835 -8.82559 -13.3388
upperneck 17.3959 -11.818 13.8328
head 9.85294 -5.03971 5.35637
rclavicle 2.0276e-014 -2.46493e-014
rhumerus -9.9933 4.04848 -73.3394
rradius 138.043
rwrist 0.6864
rhand -20.5292 25.5359
rfingers 7.12502
rthumb 5.82895 -4.36389
lclavicle 2.0276e-014 -2.46493e-014
lhumerus 4.94872 -26.76 87.6518
lradius 123.251
lwrist -1.32119
lhand -7.10663 8.1056
lfingers 7.12502
lthumb 18.7683 37.2202
rfemur -27.857 -13.1975 14.035
rtibia 60.3853
rfoot 0.554532 -10.2171
rtoes 4.61371
lfemur -10.1052 2.70719 -11.7643
ltibia 33.9788
lfoot 0.555733 -4.85812
ltoes -33.1863
856
root -0.183159 18.7216 -3.67226 6.5991 28.8815 1.02593
lowerback 8.96716 -4.11727 -3.86036
upperback 0.476925 -5.69952 3.56332
thorax -3.7721 -2.73989 6.55981
lowerneck -16.0514 -8.89301 -13.4782
upperneck 17.4353 -11.9098 13.8812
head 9.86917 -5.09168 5.38559
rclavicle -1.19271e-014 7.31528e-014
rhumerus -9.9187 3.89664 -73.109
rradius 137.797
rwrist 0.806944
rhand -20.828 25.2651
rfingers 7.12502
rthumb 5.5404 -4.64247
lclavicle -1.19271e-014 7.31528e-014
lhumerus 4.83487 -26.4357 87.6571
lradius 123.181
lwrist -1.34061
lhand -7.39926 7.90314
lfingers 7.12502
lthumb 18.4868 37.0447
rfemur -27.1929 -13.0173 14.3513
rtibia 60.6266
rfoot 3.71289 -9.68723
rtoes 3.20102
lfemur -10.3815 2.45293 -11.4521
ltibia 34.3438
lfoot -0.925737 -3.58919
ltoes -33.3661
